# Blender 4.1.1
# www.blender.org
mtllib Patte_ar_R.mtl
o Patte_arrière__R
v -0.087840 0.546025 -0.153107
v 0.472768 -1.076856 -0.079971
v -0.277878 -1.403814 0.055926
v 0.248604 0.264720 0.042946
v -0.674019 -1.502267 -0.207498
v -0.304003 -1.508363 -0.351916
v 0.666960 0.536040 0.017597
v 0.604423 -0.963236 -0.146741
v 0.065505 -0.972961 0.082573
v 0.733762 -0.544025 -0.022904
v 0.480010 -0.909970 0.076351
v -0.562434 -1.638359 -0.350884
v 0.126551 -1.277868 0.045367
v 0.207879 -0.819484 0.095120
v -0.253114 -0.196314 -0.055779
v 0.067755 -0.396828 0.076031
v 0.310534 0.853548 -0.067566
v 0.168804 -1.325311 -0.273293
v -0.132301 -1.549367 -0.286008
v -0.166281 0.912760 -0.379045
v 0.162446 -1.369838 -0.054271
v -0.112109 0.224771 -0.085411
v 0.396822 1.009189 -0.168239
v 0.147043 1.116645 -0.362077
v 0.656240 -0.256923 0.078129
v 0.534143 -0.509247 0.110615
v -0.251215 -1.766584 -0.233263
v -0.075265 -1.626072 -0.123340
v -0.584344 -1.077383 -0.296024
v 0.660966 0.926777 -0.131162
v -0.617818 -1.201307 -0.129333
v 0.301042 -0.210840 0.094486
v 0.711552 0.280328 0.031380
v -0.604836 -1.431651 -0.305708
v -0.482868 -1.525396 -0.011409
v -0.160411 -0.960257 0.097949
v -0.434018 -0.487024 -0.079307
v -0.611600 -0.516501 -0.206213
v -0.279696 -1.769707 -0.075086
v -0.314876 0.497781 -0.270748
v -0.353353 -0.835091 0.030161
v -0.507274 -1.164625 -0.027812
v -0.641479 -0.901250 -0.198266
v 0.480522 0.510359 0.053483
v 0.287601 -1.286294 -0.151479
v -0.170070 -1.506691 0.019152
v -0.646710 -0.386025 -0.277447
v 0.345165 0.927600 -0.109657
v -0.219697 0.754012 -0.305338
v -0.638739 -1.377215 -0.159644
v -0.448700 -1.590071 -0.358675
v -0.169232 -1.705988 -0.096659
v -0.395717 -1.491630 0.023797
v -0.472846 0.299790 -0.305512
v 0.618989 -1.041771 -0.225473
v 0.520359 -0.738662 0.093606
v 0.131631 -0.620073 0.103729
v -0.232345 -1.563947 -0.328535
v 0.827091 0.346924 0.004948
v 0.494300 -1.000758 0.017672
v 0.170041 -1.326794 0.002522
v 0.138322 -1.154860 0.071660
v 0.229742 -1.325163 -0.086491
v 0.271552 1.085749 -0.262742
v 0.086791 0.318990 -0.014503
v -0.586285 -1.524639 -0.339219
v -0.634556 -1.766476 -0.347291
v -0.576880 -0.967421 -0.345880
v 0.182964 -1.301519 -0.319542
v 0.689392 -0.795651 -0.073911
v -0.067784 -0.914406 0.096662
v 0.148650 1.149682 -0.445168
v 0.530688 -1.019046 -0.127055
v 0.582687 0.466124 0.057851
v -0.480407 -1.346315 -0.009100
v 0.671209 0.018592 0.077795
v -0.009153 -1.355921 0.039756
v -0.668607 -1.475460 -0.262700
v -0.559544 -1.715635 -0.046426
v -0.401355 -1.941350 -0.098654
v -0.639981 -0.970937 -0.250708
v 0.801198 -0.495660 -0.051473
v -0.099426 -0.267481 0.023400
v 0.120353 -0.884299 0.077077
v 0.050444 -1.477737 -0.095505
v 0.381749 -1.192997 -0.126020
v 0.184194 -0.311969 0.077397
v 0.369060 -0.909409 0.091952
v 0.594300 -0.395052 0.091461
v -0.237115 -1.655584 -0.028895
v -0.142674 -1.701470 -0.176005
v -0.231134 0.492226 -0.220825
v -0.023818 1.049859 -0.381365
v -0.244144 -1.491396 0.038784
v -0.635220 -0.713774 -0.195609
v 0.259290 0.033766 0.066536
v -0.349712 -0.336443 -0.071687
v -0.561187 -1.275618 -0.299527
v -0.621568 -1.041900 -0.157675
v 0.682817 0.403520 0.021457
v -0.188701 -1.173642 0.089675
v 0.698416 0.765811 -0.051290
v -0.239962 -0.002553 -0.099387
v 0.705895 -0.394851 0.036307
v 0.446484 -0.356525 0.126058
v -0.245871 -0.875496 0.076213
v 0.236616 -1.319003 -0.230201
v -0.711083 -1.610203 -0.204607
v -0.122162 0.342903 -0.119769
v -0.199193 -1.663131 -0.263362
v -0.385607 -0.667756 -0.011595
v -0.399905 -1.906600 -0.266660
v 0.424370 0.721823 0.000495
v -0.206176 -1.384839 -0.360967
v 0.380642 0.373937 0.060234
v 0.555769 0.981569 -0.146339
v 0.685391 0.983133 -0.204532
v 0.126543 0.787452 -0.109827
v -0.545739 -0.478580 -0.153115
v -0.287103 0.818513 -0.440884
v 0.037258 -1.409063 -0.266239
v -0.585478 -1.175861 -0.082076
v -0.438992 -0.988679 0.000953
v -0.630567 -1.244589 -0.222104
v 0.527646 0.036293 0.114688
v 0.331599 -1.161412 0.027438
v -0.479152 -1.849437 -0.036775
v 0.001404 0.005297 -0.000609
v -0.137601 1.039232 -0.519673
v -0.564193 -0.820440 -0.092731
v -0.330680 -1.167100 0.058342
v 0.034508 0.947841 -0.224887
v -0.015104 -1.368799 -0.328583
v -0.516436 -0.078945 -0.235973
v 0.067218 -1.465544 -0.183947
v -0.486966 -1.840905 -0.344054
v -0.635087 -1.557395 -0.090262
v -0.430493 -1.316433 -0.391743
v -0.014393 -1.487514 -0.030118
v -0.733985 -1.682732 -0.308792
v 0.399459 -1.214676 -0.287916
v -0.681721 -0.650988 -0.307063
v -0.400110 0.574985 -0.362569
v 0.779162 -0.862872 -0.155221
v 0.813742 -0.059636 0.038310
v 0.621905 -0.775193 0.020159
v 0.832860 0.737213 -0.097981
v 0.476723 1.154958 -0.325787
v 0.213120 0.596431 -0.020903
v 0.366887 -0.641488 0.122633
v 0.575643 0.788795 -0.021619
v -0.348720 -1.971878 -0.175529
v -0.047386 -1.199226 0.088650
v -0.149755 -0.591909 0.069816
vn -0.4228 0.2169 0.8799
vn -0.4248 0.2169 0.8789
vn -0.4219 0.2150 0.8808
vn -0.4981 0.2972 0.8146
vn -0.4842 0.2198 0.8469
vn -0.4882 0.2226 0.8439
vn -0.4839 0.2140 0.8486
vn 0.6648 -0.6562 0.3572
vn 0.7502 -0.6414 0.1606
vn 0.8245 -0.4973 0.2701
vn 0.0002 -0.1582 0.9874
vn -0.2194 -0.0589 0.9738
vn -0.0969 -0.1606 0.9823
vn -0.1834 0.0836 0.9795
vn -0.2705 0.1540 0.9503
vn -0.2772 0.1038 0.9552
vn -0.9778 0.1717 0.1197
vn -0.9516 0.3070 0.0163
vn -0.8969 0.2026 0.3931
vn 0.1745 -0.2001 -0.9641
vn 0.1497 -0.1056 -0.9831
vn 0.1051 -0.1352 -0.9852
vn 0.2615 0.2395 0.9350
vn 0.3807 0.0730 0.9218
vn 0.4258 0.1605 0.8905
vn 0.3588 -0.5617 0.7455
vn 0.5997 -0.5616 0.5700
vn 0.4540 -0.6880 0.5662
vn 0.0960 -0.0212 0.9952
vn 0.1985 -0.0064 0.9801
vn 0.0899 0.0840 0.9924
vn 0.5323 -0.2587 0.8060
vn 0.5463 -0.1932 0.8150
vn 0.7046 -0.2150 0.6762
vn 0.1226 -0.1182 0.9854
vn 0.2828 -0.3413 0.8964
vn 0.5716 -0.2803 0.7712
vn -0.2578 0.0836 -0.9626
vn -0.1662 -0.0568 -0.9844
vn -0.0216 -0.0417 -0.9989
vn 0.2605 -0.3184 0.9114
vn 0.1278 -0.2462 0.9608
vn 0.2523 -0.4735 0.8439
vn -0.0660 -0.0946 0.9933
vn -0.1297 -0.0940 0.9871
vn -0.0805 -0.2215 0.9718
vn -0.3708 0.2213 0.9019
vn -0.4787 0.2277 0.8479
vn -0.3929 0.1834 0.9011
vn -0.1439 0.1292 0.9811
vn -0.0748 0.0976 0.9924
vn -0.1605 0.1592 0.9741
vn -0.2806 0.2733 0.9201
vn -0.0417 0.4590 0.8875
vn -0.3065 0.4771 0.8237
vn 0.3468 -0.7494 -0.5640
vn 0.3778 -0.8393 -0.3911
vn 0.4171 -0.6837 -0.5988
vn 0.4456 -0.4690 -0.7625
vn 0.5519 -0.5210 -0.6511
vn 0.4466 -0.3823 -0.8089
vn -0.5706 0.5374 0.6210
vn -0.6485 0.6270 0.4316
vn -0.6660 0.4886 0.5637
vn 0.6429 -0.7607 0.0894
vn 0.6247 -0.6665 0.4068
vn 0.5372 -0.7156 0.4465
vn -0.4775 0.2131 0.8524
vn -0.4723 0.2127 0.8554
vn -0.4800 0.2175 0.8498
vn -0.3859 0.1520 0.9099
vn -0.4198 0.2143 0.8820
vn -0.4177 0.2141 0.8830
vn -0.4203 0.2163 0.8812
vn -0.0075 0.7359 0.6771
vn -0.2227 0.6225 0.7502
vn 0.0025 0.5553 0.8316
vn -0.3971 0.8710 0.2893
vn -0.3327 0.7183 0.6110
vn -0.1500 0.8972 0.4155
vn 0.2448 -0.0135 0.9695
vn 0.4396 -0.1286 0.8890
vn 0.3233 -0.0676 0.9439
vn 0.5330 -0.1095 0.8390
vn 0.2268 -0.0046 0.9739
vn 0.1195 -0.0611 0.9910
vn 0.6013 -0.4678 -0.6478
vn 0.4897 -0.3931 -0.7782
vn 0.5910 -0.5248 -0.6127
vn 0.6265 -0.6055 0.4908
vn 0.7499 -0.6255 0.2154
vn 0.7523 -0.6583 0.0249
vn -0.7448 -0.0866 -0.6616
vn -0.8132 -0.1999 -0.5466
vn -0.6737 -0.1433 -0.7249
vn 0.2282 0.5149 0.8263
vn 0.4490 0.5327 0.7173
vn 0.2675 0.7412 0.6157
vn -0.8475 0.0687 0.5264
vn -0.9923 0.0502 0.1130
vn -0.9130 0.0880 0.3985
vn -0.1650 0.0709 0.9837
vn -0.2460 0.0838 0.9656
vn -0.1761 0.0374 0.9837
vn 0.2504 0.0949 0.9635
vn 0.1952 0.2188 0.9560
vn 0.2580 0.1323 0.9570
vn -0.5306 0.1853 -0.8271
vn -0.5511 0.2931 -0.7813
vn -0.6652 0.2265 -0.7115
vn -0.4615 0.0092 0.8871
vn -0.3010 -0.0779 0.9505
vn -0.3855 -0.0158 0.9226
vn -0.2271 0.0004 0.9739
vn 0.0127 -0.0329 0.9994
vn -0.0968 0.0786 0.9922
vn -0.5293 0.1732 0.8305
vn -0.3942 0.2052 0.8958
vn -0.5052 0.2185 0.8349
vn -0.6844 0.1966 0.7021
vn -0.8702 0.0904 0.4844
vn -0.7107 0.1461 0.6881
vn 0.5172 -0.5159 0.6829
vn 0.3990 -0.4978 0.7700
vn 0.3233 -0.3956 0.8596
vn -0.5538 0.3084 0.7734
vn -0.4718 0.2164 0.8547
vn -0.4802 0.2884 0.8284
vn -0.3887 0.0515 0.9199
vn -0.3576 0.1491 0.9219
vn -0.4942 0.1159 0.8616
vn -0.5537 0.0650 0.8302
vn -0.5286 0.0372 0.8480
vn -0.4380 0.0255 0.8986
vn -0.9858 -0.0426 0.1626
vn -0.8180 0.0324 0.5743
vn -0.9631 -0.0392 0.2661
vn -0.2056 0.1907 0.9599
vn -0.0447 0.1235 0.9913
vn 0.0458 0.2455 0.9683
vn 0.6686 -0.6768 0.3080
vn 0.6313 -0.7756 -0.0030
vn 0.6142 -0.7837 0.0922
vn 0.1554 -0.2764 0.9484
vn 0.2377 -0.3615 0.9016
vn 0.3199 -0.4361 0.8411
vn 0.1959 -0.0265 -0.9803
vn -0.7083 -0.6771 0.1998
vt 0.822978 0.522021
vt 0.811071 0.529389
vt 0.818154 0.500799
vt 0.832516 0.501753
vt 0.845234 0.503924
vt 0.823451 0.532907
vt 0.795075 0.566196
vt 0.849618 0.727856
vt 0.855702 0.722168
vt 0.858203 0.737956
vt 0.847672 0.738446
vt 0.836860 0.740050
vt 0.845845 0.722568
vt 0.854188 0.704665
vt 0.705798 0.583999
vt 0.699628 0.584111
vt 0.712709 0.563663
vt 0.717732 0.572183
vt 0.721743 0.581327
vt 0.703376 0.594007
vt 0.683516 0.608812
vt 0.796435 0.506857
vt 0.781752 0.512045
vt 0.775147 0.494408
vt 0.799907 0.495417
vt 0.804009 0.516134
vt 0.786584 0.529722
vt 0.452986 0.838873
vt 0.450030 0.830732
vt 0.454323 0.821721
vt 0.456705 0.837100
vt 0.459363 0.850503
vt 0.452566 0.845814
vt 0.445287 0.843166
vt 0.658007 0.694760
vt 0.662758 0.684941
vt 0.675208 0.681296
vt 0.663529 0.697638
vt 0.650370 0.720073
vt 0.649572 0.702322
vt 0.647067 0.683248
vt 0.803176 0.472757
vt 0.816970 0.464988
vt 0.821247 0.472291
vt 0.800709 0.479921
vt 0.794559 0.475129
vt 0.812140 0.457119
vt 0.843741 0.716400
vt 0.838580 0.720336
vt 0.841348 0.703078
vt 0.847397 0.703272
vt 0.724009 0.550517
vt 0.730819 0.557631
vt 0.711013 0.550501
vt 0.706105 0.538234
vt 0.728193 0.544686
vt 0.752927 0.554727
vt 0.734803 0.496344
vt 0.720528 0.505850
vt 0.714554 0.501975
vt 0.736290 0.490797
vt 0.762588 0.478502
vt 0.744451 0.494148
vt 0.849796 0.688008
vt 0.853632 0.681296
vt 0.717844 0.521979
vt 0.727397 0.514898
vt 0.737023 0.522286
vt 0.720509 0.529130
vt 0.712143 0.523553
vt 0.723001 0.509445
vt 0.642812 0.707196
vt 0.639766 0.716971
vt 0.632425 0.712646
vt 0.639866 0.699740
vt 0.703799 0.554507
vt 0.699907 0.553060
vt 0.702294 0.565350
vt 0.694592 0.569275
vt 0.729994 0.537279
vt 0.744169 0.537074
vt 0.780547 0.551606
vt 0.772023 0.543231
vt 0.792437 0.545883
vt 0.774290 0.561535
vt 0.759689 0.535552
vt 0.762105 0.525797
vt 0.831933 0.487978
vt 0.820679 0.483783
vt 0.835874 0.483938
vt 0.840196 0.756502
vt 0.842060 0.766940
vt 0.838332 0.767915
vt 0.836957 0.755010
vt 0.842405 0.752596
vt 0.847348 0.767685
vt 0.670115 0.695350
vt 0.679497 0.683452
vt 0.682646 0.687061
vt 0.667335 0.704102
vt 0.848670 0.518304
vt 0.839790 0.525658
vt 0.853706 0.505523
vt 0.856464 0.513577
vt 0.846061 0.528755
vt 0.833357 0.542151
vt 0.854826 0.757230
vt 0.853373 0.768362
vt 0.851978 0.752036
vt 0.858413 0.754218
vt 0.858312 0.771397
vt 0.803345 0.531682
vt 0.839945 0.478644
vt 0.834259 0.468966
vt 0.847767 0.470138
vt 0.848182 0.485076
vt 0.972558 0.599193
vt 0.967092 0.599143
vt 0.960582 0.581783
vt 0.970346 0.588733
vt 0.853593 0.492648
vt 0.979707 0.607708
vt 0.976605 0.620826
vt 0.754013 0.493706
vt 0.770725 0.485639
vt 0.746900 0.501250
vt 0.741199 0.508047
vt 0.752727 0.509766
vt 0.665437 0.711958
vt 0.672014 0.706113
vt 0.662032 0.727466
vt 0.657335 0.723528
vt 0.847692 0.798478
vt 0.844993 0.791020
vt 0.850331 0.789541
vt 0.853023 0.782080
vt 0.855829 0.790372
vt 0.852863 0.813021
vt 0.459556 0.810824
vt 0.459733 0.824751
vt 0.456396 0.802787
vt 0.460224 0.780253
vt 0.462990 0.803361
vt 0.466365 0.829247
vt 0.828230 0.463499
vt 0.831470 0.460666
vt 0.404943 0.740837
vt 0.409523 0.742282
vt 0.409523 0.761066
vt 0.402465 0.748503
vt 0.448225 0.818910
vt 0.445223 0.817579
vt 0.446282 0.793421
vt 0.450217 0.807904
vt 0.765446 0.515553
vt 0.786179 0.476407
vt 0.787614 0.467258
vt 0.637656 0.693672
vt 0.638542 0.682386
vt 0.634301 0.697619
vt 0.459856 0.834913
vt 0.703570 0.600638
vt 0.714598 0.595860
vt 0.705663 0.611573
vt 0.693812 0.610617
vt 0.730228 0.564827
vt 0.737665 0.568257
vt 0.767047 0.570913
vt 0.770636 0.578160
vt 0.749619 0.587995
vt 0.754352 0.572232
vt 0.770138 0.583565
vt 0.779411 0.582685
vt 0.453882 0.771914
vt 0.458587 0.762491
vt 0.452935 0.785170
vt 0.758439 0.590150
vt 0.858413 0.798672
vt 0.858359 0.813341
vt 0.683777 0.593906
vt 0.685135 0.585148
vt 0.689597 0.588071
vt 0.676213 0.606297
vt 0.826068 0.538344
vt 0.817808 0.553804
vt 0.743002 0.574329
vt 0.735706 0.583931
vt 0.726599 0.592979
vt 0.728061 0.598501
vt 0.452947 0.797977
vt 0.805959 0.485433
vt 0.847065 0.747859
vt 0.696967 0.579746
s 1
usemtl Material.003
f 1/1/1 109/2/2 149/3/3 118/4/1
f 1/1/4 118/4/4 132/5/4 92/6/4
f 1/1/5 92/6/5 134/7/6 109/2/7
f 2/8/8 60/9/8 126/10/8 86/11/8
f 2/8/9 86/11/9 141/12/9 73/13/9
f 2/8/10 73/13/10 146/14/10 60/9/10
f 3/15/11 94/16/11 153/17/11 101/18/11
f 3/15/12 101/18/12 131/19/12 53/20/12
f 3/15/13 53/20/13 127/21/13 94/16/13
f 4/22/14 96/23/14 125/24/14 115/25/14
f 4/22/15 115/25/15 149/3/15 65/26/15
f 4/22/16 65/26/16 128/27/16 96/23/16
f 5/28/17 50/29/17 124/30/17 78/31/17
f 5/28/18 78/31/18 140/32/18 108/33/18
f 5/28/19 108/33/19 137/34/19 50/29/19
f 6/35/20 114/36/20 133/37/20 58/38/20
f 6/35/21 58/38/21 136/39/21 51/40/21
f 6/35/22 51/40/22 138/41/22 114/36/22
f 7/42/23 102/43/23 151/44/23 74/45/23
f 7/42/24 74/45/24 125/24/24 100/46/24
f 7/42/25 100/46/25 147/47/25 102/43/25
f 8/48/26 55/49/26 144/50/26 70/51/26
f 8/48/27 70/51/27 146/14/27 73/13/27
f 8/48/28 73/13/28 141/12/28 55/49/28
f 9/52/29 71/53/29 153/17/29 62/54/29
f 9/52/30 62/54/30 126/55/30 84/56/30
f 9/52/31 84/56/31 154/57/31 71/53/31
f 10/58/32 70/59/32 144/60/32 82/61/32
f 10/58/33 82/61/33 145/62/33 104/63/33
f 10/64/34 104/65/34 146/14/34 70/51/34
f 11/66/35 56/67/35 150/68/35 88/69/35
f 11/66/36 88/69/36 126/55/36 60/70/36
f 11/66/37 60/70/37 146/71/37 56/67/37
f 12/72/38 67/73/38 140/74/38 66/75/38
f 12/72/39 66/75/39 138/41/39 51/40/39
f 12/72/40 51/40/40 136/39/40 67/73/40
f 13/76/41 61/77/41 126/55/41 62/54/41
f 13/76/42 62/54/42 153/17/42 77/78/42
f 13/76/43 77/78/43 139/79/43 61/77/43
f 14/80/44 88/69/44 150/68/44 57/81/44
f 14/80/45 57/81/45 154/57/45 84/56/45
f 14/80/46 84/56/46 126/55/46 88/69/46
f 15/82/47 83/83/47 128/27/47 103/84/47
f 15/82/48 103/84/48 134/7/48 97/85/48
f 15/82/49 97/85/49 154/57/49 83/83/49
f 16/86/50 83/83/50 154/57/50 57/81/50
f 16/86/51 57/81/51 150/68/51 87/87/51
f 16/86/52 87/87/52 128/27/52 83/83/52
f 17/88/53 118/4/53 149/3/53 113/89/53
f 17/88/54 113/89/54 151/44/54 48/90/54
f 17/88/55 48/90/55 132/5/55 118/4/55
f 18/91/56 121/92/56 133/93/56 69/94/56
f 18/91/57 69/94/57 141/12/57 107/95/57
f 18/91/58 107/95/58 135/96/58 121/92/58
f 19/97/59 58/38/59 133/37/59 121/98/59
f 19/97/60 121/98/60 135/99/60 110/100/60
f 19/97/61 110/100/61 136/39/61 58/38/61
f 20/101/62 49/102/62 132/5/62 93/103/62
f 20/101/63 93/103/63 129/104/63 120/105/63
f 20/101/64 120/105/64 143/106/64 49/102/64
f 21/107/65 85/108/65 135/96/65 63/109/65
f 21/107/66 63/109/66 126/10/66 61/110/66
f 21/107/67 61/110/67 139/111/67 85/108/67
f 22/112/68 109/2/69 134/7/70 103/84/68
f 22/112/71 103/84/71 128/27/71 65/26/71
f 22/112/72 65/26/72 149/3/73 109/2/74
f 23/113/75 116/114/75 148/115/75 64/116/75
f 23/113/76 64/116/76 132/5/76 48/90/76
f 23/113/77 48/90/77 151/44/77 116/114/77
f 24/117/78 72/118/78 129/119/78 93/120/78
f 24/121/79 93/103/79 132/5/79 64/116/79
f 24/117/80 64/122/80 148/123/80 72/118/80
f 25/124/81 76/125/81 125/24/81 89/126/81
f 25/124/82 89/126/82 146/71/82 104/63/82
f 25/124/83 104/63/83 145/62/83 76/125/83
f 26/127/84 56/67/84 146/71/84 89/126/84
f 26/127/85 89/126/85 125/24/85 105/128/85
f 26/127/86 105/128/86 150/68/86 56/67/86
f 27/129/87 91/130/87 152/131/87 112/132/87
f 27/129/88 112/132/88 136/39/88 110/100/88
f 27/133/89 110/134/89 135/96/89 91/135/89
f 28/136/90 85/108/90 139/111/90 52/137/90
f 28/136/91 52/137/91 152/138/91 91/135/91
f 28/136/92 91/135/92 135/96/92 85/108/92
f 29/139/93 98/140/93 124/30/93 81/141/93
f 29/139/94 81/141/94 142/142/94 68/143/94
f 29/139/95 68/143/95 138/144/95 98/140/95
f 30/145/96 116/114/96 151/44/96 102/43/96
f 30/145/97 102/43/97 147/47/97 117/146/97
f 30/147/98 117/148/98 148/149/98 116/150/98
f 31/151/99 122/152/99 130/153/99 99/154/99
f 31/151/100 99/154/100 124/30/100 50/29/100
f 31/151/101 50/29/101 137/34/101 122/152/101
f 32/155/102 105/128/102 125/24/102 96/23/102
f 32/155/103 96/23/103 128/27/103 87/87/103
f 32/155/104 87/87/104 150/68/104 105/128/104
f 33/156/105 76/125/105 145/62/105 59/157/105
f 33/156/106 59/157/106 147/47/106 100/46/106
f 33/156/107 100/46/107 125/24/107 76/125/107
f 34/158/108 98/159/108 138/41/108 66/75/108
f 34/158/109 66/75/109 140/74/109 78/160/109
f 34/161/110 78/31/110 124/30/110 98/140/110
f 35/162/111 75/163/111 137/164/111 79/165/111
f 35/162/112 79/165/112 127/21/112 53/20/112
f 35/162/113 53/20/113 131/19/113 75/163/113
f 36/166/114 106/167/114 131/19/114 101/18/114
f 36/166/115 101/18/115 153/17/115 71/53/115
f 36/166/116 71/53/116 154/57/116 106/167/116
f 37/168/117 119/169/117 130/170/117 111/171/117
f 37/168/118 111/171/118 154/57/118 97/85/118
f 37/168/119 97/85/119 134/7/119 119/169/119
f 38/172/120 119/169/120 134/7/120 47/173/120
f 38/174/121 47/175/121 142/142/121 95/176/121
f 38/172/122 95/177/122 130/170/122 119/169/122
f 39/178/123 80/179/123 152/138/123 52/137/123
f 39/180/124 52/181/124 139/79/124 90/182/124
f 39/180/125 90/182/125 127/21/125 80/183/125
f 40/184/126 49/102/126 143/106/126 54/185/126
f 40/184/127 54/185/127 134/7/127 92/6/127
f 40/184/128 92/6/128 132/5/128 49/102/128
f 41/186/129 123/187/129 131/19/129 106/167/129
f 41/186/130 106/167/130 154/57/130 111/171/130
f 41/186/131 111/171/131 130/170/131 123/187/131
f 42/188/132 123/187/132 130/170/132 122/189/132
f 42/188/133 122/189/133 137/164/133 75/163/133
f 42/188/134 75/163/134 131/19/134 123/187/134
f 43/190/135 81/141/135 124/30/135 99/154/135
f 43/190/136 99/154/136 130/153/136 95/176/136
f 43/190/137 95/176/137 142/142/137 81/141/137
f 44/191/138 113/89/138 149/3/138 115/25/138
f 44/191/139 115/25/139 125/24/139 74/45/139
f 44/191/140 74/45/140 151/44/140 113/89/140
f 45/192/141 86/11/141 126/10/141 63/109/141
f 45/192/142 63/109/142 135/96/142 107/95/142
f 45/192/143 107/95/143 141/12/143 86/11/143
f 46/193/144 77/78/144 153/17/144 94/16/144
f 46/193/145 94/16/145 127/21/145 90/182/145
f 46/193/146 90/182/146 139/79/146 77/78/146
f 133/93/147 114/36/147 138/144/147 68/143/147 142/142/147 47/173/147 134/7/147 54/185/147 143/106/147 120/105/147 129/119/147 72/118/147 148/149/147 117/146/147 147/47/147 59/157/147 145/62/147 82/61/147 144/50/147 55/49/147 141/12/147 69/94/147
f 137/34/148 108/33/148 140/32/148 67/73/148 136/39/148 112/132/148 152/131/148 80/179/148 127/21/148 79/165/148
