# Blender 4.1.1
# www.blender.org
mtllib Patte_av_L.mtl
o Patte_avant_L
v -0.408431 -0.918829 0.067968
v -0.112240 0.247999 0.078733
v 0.516416 -1.982318 0.451568
v 0.406591 -2.245891 0.312621
v -0.204169 -1.302974 0.208638
v 0.490403 -2.323308 0.420325
v -0.050938 -0.758466 -0.004820
v 0.310182 -0.052691 -0.001826
v 0.153143 -1.720758 0.452470
v 0.010213 -1.643476 0.186110
v 0.340779 -2.393718 0.275224
v 0.728470 -0.953482 0.283343
v 0.425260 -1.195038 0.132101
v 0.058106 -2.158935 0.371562
v 0.560998 -1.506025 0.330930
v 0.222180 0.348157 0.082019
v 0.112111 -2.159366 0.307831
v 0.229607 -2.492945 0.295626
v 0.447412 -1.743709 0.257703
v -0.016051 -0.341541 -0.032354
v 0.596238 -0.685125 0.097477
v 0.180231 -2.492167 0.474503
v 0.571770 -0.273059 0.050418
v 0.321758 -1.774950 0.563965
v 0.556898 -1.451854 0.594863
v 0.260191 -2.114860 0.532784
v 0.599045 -1.449814 0.524795
v 0.398007 -2.192709 0.576757
v 0.501722 -1.850758 0.537871
v 0.671078 -1.225712 0.391194
v -0.295447 -0.222642 -0.004396
v 0.171370 -1.280557 0.085700
v -0.400505 -1.100418 0.181017
v -0.251713 -0.885637 0.021531
v 0.459092 -0.122218 0.016861
v 0.064646 -2.152651 0.341654
v 0.125363 -2.407251 0.424241
v 0.438445 -1.528429 0.205887
v 0.270510 -2.393025 0.258574
v 0.512328 -0.819870 0.097403
v -0.282095 -1.203353 0.187945
v 0.467201 -2.280269 0.358635
v 0.267060 0.136885 0.028038
v 0.491836 -2.194959 0.442660
v 0.679687 -0.820958 0.177673
v 0.309817 -1.267885 0.104158
v 0.075255 -1.588890 0.141587
v 0.580894 -0.506097 0.060714
v 0.070373 -1.871885 0.248500
v -0.102820 -1.422770 0.179201
v 0.493680 -2.468696 0.456510
v 0.706015 -1.095896 0.348041
v 0.255782 -1.789770 0.527514
v 0.166234 -0.199833 -0.023988
v -0.173846 -1.336714 0.296888
v 0.613485 -1.298414 0.343887
v 0.662553 -1.340873 0.473025
v 0.439495 -1.591787 0.605816
v 0.096644 -0.923725 0.025427
v 0.376504 -2.330281 0.296586
v -0.188581 -0.294665 -0.024093
v 0.392879 -2.437006 0.565746
v 0.271237 -1.933948 0.530622
v 0.129847 -1.519804 0.448422
v -0.417838 -0.354254 0.017693
v 0.526634 -1.608699 0.529224
v 0.454044 -2.030749 0.568071
v 0.531815 -1.754312 0.394454
v 0.591090 -1.444591 0.559523
v 0.648606 -0.196002 0.083967
v 0.191712 -2.407877 0.315791
v 0.390774 -2.057889 0.286490
v 0.338205 -2.116911 0.570107
v 0.052100 -1.890775 0.378821
v 0.525670 -1.573766 0.281367
v 0.200987 -2.322533 0.501841
v 0.526564 -1.930968 0.501194
v -0.403818 -1.039053 0.122045
v -0.218768 -0.005761 0.024110
v -0.504657 -0.737748 0.069407
v -0.022819 -0.532420 -0.027476
v 0.054184 0.348400 0.087629
v 0.484185 -2.356742 0.536366
v 0.291197 -2.469519 0.551025
v 0.426446 -1.721622 0.580315
v 0.140318 -2.118419 0.453260
v 0.579286 -1.537836 0.451613
v 0.741587 -0.597525 0.150175
v 0.556601 0.215082 0.075154
v -0.001071 0.000452 0.000051
v 0.607491 -1.084593 0.218855
v 0.356158 -0.497670 -0.007400
v 0.472746 -2.008204 0.346997
v -0.136255 -1.213114 0.084310
v 0.185613 -2.773272 0.416596
v -0.043315 -1.594235 0.288452
v 0.254200 -2.094716 0.234816
v -0.337909 -0.586050 -0.008603
v -0.408431 -0.918829 0.067968
v -0.112240 0.247999 0.078733
v -0.204169 -1.302974 0.208638
v 0.153143 -1.720758 0.452470
v 0.728470 -0.953482 0.283343
v -0.513428 -0.521403 0.064024
v 0.222180 0.348157 0.082019
v 0.321758 -1.774950 0.563965
v 0.556898 -1.451854 0.594863
v 0.599045 -1.449814 0.524795
v 0.671078 -1.225712 0.391194
v -0.295447 -0.222642 -0.004396
v -0.007234 -1.380687 0.411268
v -0.400505 -1.100418 0.181017
v -0.172925 0.358036 0.117613
v -0.282095 -1.203353 0.187945
v 0.267060 0.136885 0.028038
v 0.679687 -0.820958 0.177673
v -0.490574 -1.073249 0.260671
v 0.345700 0.487974 0.131812
v 0.706015 -1.095896 0.348041
v 0.255782 -1.789770 0.527514
v -0.173846 -1.336714 0.296888
v 0.781535 -0.896113 0.316711
v -0.558259 -0.450471 0.097728
v 0.662553 -1.340873 0.473025
v 0.439495 -1.591787 0.605816
v 0.129847 -1.519804 0.448422
v -0.417838 -0.354254 0.017693
v 0.591090 -1.444591 0.559523
v 0.625240 -1.375723 0.618914
v 0.039569 -1.347595 0.500915
v -0.403818 -1.039053 0.122045
v -0.218768 -0.005761 0.024110
v -0.504657 -0.737748 0.069407
v 0.054184 0.348400 0.087629
v 0.425835 -1.484063 0.658572
v 0.790922 -1.179249 0.521242
v 0.741587 -0.597525 0.150175
v 0.556601 0.215082 0.075154
v -0.043315 -1.594235 0.288452
v -0.313099 -1.207858 0.345014
v -0.337909 -0.586050 -0.008603
v -0.652732 -0.891324 0.186163
v -0.419876 -0.046907 0.058520
v 0.094177 0.720809 0.207378
vn -0.2733 -0.1603 -0.9485
vn -0.2837 -0.3127 -0.9065
vn -0.1090 0.2563 -0.9604
vn 0.9740 -0.1377 -0.1801
vn 0.9262 -0.1230 -0.3563
vn 0.9891 -0.1079 -0.1003
vn 0.6013 -0.0520 -0.7973
vn 0.4100 -0.0552 -0.9104
vn -0.5957 -0.4604 -0.6582
vn -0.8497 -0.5080 -0.1413
vn 0.9984 0.0096 0.0563
vn 0.7237 -0.6708 -0.1621
vn 0.8077 -0.5553 -0.1978
vn 0.9621 -0.0095 -0.2724
vn -0.0502 -0.1053 -0.9932
vn -0.0099 -0.1906 -0.9816
vn 0.0666 -0.1137 -0.9913
vn 0.1439 0.1488 -0.9783
vn 0.0191 0.1471 -0.9889
vn 0.1313 0.0260 -0.9910
vn -0.6441 -0.0085 0.7649
vn -0.5962 0.0208 0.8026
vn -0.4995 -0.3567 -0.7894
vn -0.8814 -0.3826 -0.2769
vn -0.4131 -0.3156 -0.8542
vn 0.3506 -0.0250 -0.9362
vn 0.6963 -0.3287 -0.6380
vn 0.3689 -0.1744 -0.9130
vn 0.5104 -0.1819 -0.8405
vn 0.3143 -0.1562 -0.9364
vn -0.9053 -0.1019 0.4124
vn -0.6956 -0.0356 0.7176
vn -0.6963 -0.0347 0.7169
vn -0.6967 -0.0342 0.7165
vn -0.9738 -0.1933 0.1200
vn 0.9287 -0.1737 -0.3278
vn 0.9611 -0.1940 -0.1968
vn 0.9021 -0.2010 -0.3817
vn -0.0270 0.2458 -0.9689
vn -0.5799 -0.2089 -0.7874
vn -0.3750 -0.1986 -0.9055
vn -0.6931 -0.2142 -0.6883
vn -0.5742 -0.0888 -0.8139
vn 0.5848 -0.1885 -0.7890
vn 0.4206 -0.1734 -0.8905
vn 0.6461 -0.1879 -0.7398
vn -0.0552 -0.0243 -0.9982
vn 0.0576 -0.0223 -0.9981
vn -0.0252 0.0954 -0.9951
vn 0.4342 -0.1908 -0.8804
vn 0.2789 -0.1714 -0.9449
vn 0.4170 -0.2535 -0.8729
vn -0.6971 -0.0337 0.7162
vn 0.2793 -0.0210 -0.9600
vn 0.4580 -0.0334 -0.8883
vn 0.3533 0.0583 -0.9337
vn -0.0579 -0.1870 0.9806
vn -0.4757 -0.0320 0.8790
vn 0.5333 -0.3005 0.7908
vn -0.5532 0.0384 0.8322
vn -0.3920 0.0547 0.9183
vn -0.4529 0.0063 0.8915
vn 0.8850 -0.3987 0.2405
vn 0.7795 -0.3958 0.4855
vn 0.3347 -0.0558 0.9407
vn -0.1410 -0.0376 0.9893
vn 0.0243 -0.0090 0.9997
vn 0.4868 -0.0033 0.8735
vn 0.8248 -0.0492 0.5633
vn 0.6970 -0.0263 0.7166
vn 0.7604 -0.3360 -0.5557
vn 0.8412 -0.3303 -0.4282
vn -0.1014 0.1534 -0.9829
vn -0.1876 0.0333 -0.9817
vn 0.1260 -0.1464 -0.9812
vn -0.0330 -0.1709 -0.9847
vn 0.0785 -0.1719 -0.9820
vn -0.4886 -0.6116 -0.6223
vn -0.4428 -0.2960 -0.8463
vn -0.1118 0.3061 -0.9454
vn -0.1940 0.2671 -0.9440
vn -0.7270 -0.6781 -0.1077
vn -0.5834 -0.0344 0.8114
vn 0.7505 -0.3696 -0.5478
vn 0.6999 -0.2727 -0.6601
vn 0.2355 0.4232 0.8749
vn -0.9868 -0.1604 0.0219
vn -0.3931 -0.0349 -0.9188
vn -0.5423 0.0972 -0.8345
vn -0.6054 -0.0346 -0.7952
vn 0.0856 0.2647 -0.9605
vn -0.0077 0.3164 -0.9486
vn -0.1178 -0.2688 0.9560
vn 0.4772 -0.4558 0.7513
vn 0.7673 -0.5924 0.2457
vn 0.8154 -0.5785 -0.0200
vn 0.7399 -0.4052 -0.5370
vn -0.2532 0.1622 -0.9537
vn -0.1807 0.2305 0.9561
vn -0.1742 0.2745 0.9457
vn -0.4643 0.3143 -0.8280
vn -0.0596 0.4690 0.8812
vn -0.0612 0.3313 -0.9415
vn -0.1386 0.5552 0.8201
vn -0.5066 -0.7079 0.4922
vn -0.5180 -0.4861 0.7039
vn -0.5741 -0.3332 0.7480
vn -0.5700 -0.7928 -0.2156
vn -0.1277 0.5248 0.8416
vn -0.6402 -0.4814 -0.5986
vn -0.1011 0.4929 0.8642
vn -0.5553 -0.6573 -0.5096
vn -0.2153 0.0365 -0.9759
vn 0.0236 0.0008 -0.9997
vn -0.1682 -0.1026 -0.9804
vn -0.1441 0.5435 0.8269
vn -0.4984 -0.6145 -0.6115
vn -0.8826 -0.4516 0.1306
vn -0.6628 -0.0618 0.7462
vn 0.6980 -0.5922 0.4026
vn 0.0309 0.2232 0.9743
vn 0.7104 0.3897 -0.5861
vn -0.0149 0.2161 0.9763
vn -0.6047 0.2589 0.7532
vn -0.6370 0.2879 0.7150
vn 0.3829 0.1054 0.9178
vn 0.3691 0.0988 0.9241
vn 0.0350 -0.1125 0.9930
vn 0.4784 -0.8740 -0.0850
vn 0.4781 -0.8742 -0.0850
vt 0.230031 0.345012
vt 0.243600 0.343509
vt 0.249228 0.357949
vt 0.228432 0.355840
vt 0.205042 0.355032
vt 0.222235 0.342396
vt 0.294884 0.394682
vt 0.296956 0.408118
vt 0.277181 0.395104
vt 0.282052 0.380939
vt 0.886218 0.318505
vt 0.883837 0.306085
vt 0.888943 0.293138
vt 0.889827 0.315631
vt 0.884318 0.330339
vt 0.879154 0.321511
vt 0.889537 0.339203
vt 0.126739 0.364184
vt 0.138879 0.367957
vt 0.139662 0.374810
vt 0.122912 0.367401
vt 0.122330 0.359968
vt 0.140197 0.357939
vt 0.042051 0.720531
vt 0.041651 0.712595
vt 0.049466 0.713509
vt 0.046126 0.729395
vt 0.041535 0.743215
vt 0.036912 0.724416
vt 0.882030 0.336764
vt 0.883518 0.344047
vt 0.878226 0.335485
vt 0.231472 0.372055
vt 0.244868 0.379681
vt 0.217475 0.377427
vt 0.237591 0.405218
vt 0.266232 0.413871
vt 0.278891 0.416145
vt 0.276384 0.437133
vt 0.258178 0.421779
vt 0.260774 0.400617
vt 0.766518 0.712624
vt 0.765470 0.698522
vt 0.778309 0.700643
vt 0.775569 0.722623
vt 0.772470 0.739716
vt 0.760432 0.719037
vt 0.174348 0.353708
vt 0.190820 0.352116
vt 0.176323 0.359163
vt 0.049173 0.745720
vt 0.048359 0.762727
vt 0.158452 0.351901
vt 0.119381 0.355912
vt 0.121230 0.351310
vt 0.198909 0.418630
vt 0.190360 0.413725
vt 0.194067 0.407110
vt 0.208786 0.418496
vt 0.192112 0.392071
vt 0.170827 0.384529
vt 0.190574 0.382578
vt 0.213336 0.407356
vt 0.043863 0.783693
vt 0.039978 0.765631
vt 0.045777 0.782923
vt 0.778652 0.741053
vt 0.777264 0.759192
vt 0.049466 0.827289
vt 0.043979 0.801989
vt 0.881143 0.291952
vt 0.877463 0.296872
vt 0.883251 0.279032
vt 0.876291 0.268094
vt 0.292827 0.418970
vt 0.139370 0.347347
vt 0.121996 0.346052
vt 0.099084 0.336537
vt 0.140803 0.344586
vt 0.048371 0.783458
vt 0.115889 0.346205
vt 0.157053 0.379705
vt 0.165534 0.389304
vt 0.256534 0.385079
vt 0.263648 0.375160
vt 0.219606 0.416307
vt 0.231227 0.419833
vt 0.221209 0.428222
vt 0.774594 0.765956
vt 0.770959 0.754720
vt 0.245917 0.425280
vt 0.248642 0.432404
vt 0.755799 0.719052
vt 0.761265 0.729138
vt 0.748209 0.716854
vt 0.745597 0.708237
vt 0.736155 0.700154
vt 0.733948 0.699957
vt 0.764307 0.741402
vt 0.759101 0.742737
vt 0.766779 0.766203
vt 0.894337 0.288049
vt 0.893712 0.299559
vt 0.891512 0.279292
vt 0.896686 0.288310
vt 0.896507 0.310294
vt 0.756142 0.748754
vt 0.759659 0.765385
vt 0.752756 0.760967
vt 0.750423 0.738358
vt 0.745094 0.726522
vt 0.740380 0.710222
vt 0.892794 0.312955
vt 0.744628 0.732192
vt 0.886788 0.272773
vt 0.884698 0.264389
vt 0.270649 0.370197
vt 0.265422 0.358926
vt 0.193284 0.373204
vt 0.040052 0.704152
vt 0.043107 0.699137
vt 0.237221 0.330388
vt 0.303013 0.393781
vt 0.318476 0.420913
vt 0.284306 0.366979
vt 0.031262 0.714757
vt 0.744921 0.700898
vt 0.881269 0.255894
vt 0.883788 0.250569
vt 0.895592 0.265136
vt 0.201002 0.423700
vt 0.257226 0.348563
vt 0.262569 0.347647
vt 0.298212 0.430822
vt 0.899025 0.290475
vt 0.901028 0.283430
vt 0.903198 0.298706
vt 0.899002 0.303243
vt 0.033939 0.702382
vt 0.768977 0.685746
vt 0.031066 0.730972
vt 0.025099 0.730563
vt 0.772775 0.687010
vt 0.783504 0.681296
vt 0.035476 0.687135
vt 0.000000 0.000000
s 1
usemtl Material.005
f 1/1/1 80/2/1 98/3/1 34/4/1
f 1/1/2 34/4/2 94/5/2 78/6/2
f 2/7/3 82/8/3 90/9/3 79/10/3
f 3/11/4 68/12/4 87/13/4 77/14/4
f 3/11/5 44/15/5 93/16/5 68/12/5
f 3/11/6 77/14/6 83/17/6 44/15/6
f 4/18/7 72/19/7 93/20/7 42/21/7
f 4/18/8 60/22/8 97/23/8 72/19/8
f 5/24/9 41/25/9 94/26/9 50/27/9
f 5/24/10 50/27/10 96/28/10 55/29/10
f 6/30/11 44/15/11 83/17/11 51/31/11
f 6/30/12 42/32/13 93/16/14 44/15/14
f 7/33/15 34/4/15 98/3/15 81/34/15
f 7/33/16 59/35/16 94/5/16 34/4/16
f 7/33/17 81/34/17 92/36/17 59/35/17
f 8/37/18 43/38/18 89/39/18 35/40/18
f 8/37/19 54/41/19 90/9/19 43/38/19
f 8/37/20 35/40/20 92/36/20 54/41/20
f 9/42/21 64/43/21 96/44/21 74/45/21
f 9/42/22 74/45/22 86/46/22 53/47/22
f 10/48/23 50/49/23 94/5/23 47/50/23
f 10/51/24 49/52/24 96/28/24 50/27/24
f 10/48/25 47/50/25 97/23/25 49/53/25
f 11/54/26 39/55/26 97/23/26 60/22/26
f 12/56/27 52/57/27 91/58/27 45/59/27
f 13/60/28 38/61/28 97/23/28 46/62/28
f 13/60/29 40/63/29 91/58/29 38/61/29
f 13/60/30 46/62/30 92/36/30 40/63/30
f 14/64/31 74/65/31 96/28/31 36/66/31
f 14/67/32 37/68/33 86/46/34 74/45/32
f 14/64/35 36/66/35 95/69/35 37/70/35
f 15/71/36 68/12/36 93/16/36 75/72/36
f 15/71/37 56/73/37 87/13/37 68/12/37
f 15/71/38 75/72/38 91/74/38 56/73/38
f 16/75/39 43/38/39 90/9/39 82/8/39
f 17/76/40 71/77/40 95/78/40 36/79/40
f 17/76/41 49/53/41 97/23/41 71/77/41
f 17/80/42 36/66/42 96/28/42 49/52/42
f 18/81/43 71/77/43 97/23/43 39/55/43
f 19/82/44 38/61/44 91/58/44 75/83/44
f 19/82/45 72/19/45 97/23/45 38/61/45
f 19/82/46 75/83/46 93/20/46 72/19/46
f 20/84/47 81/34/47 98/3/47 61/85/47
f 20/84/48 54/41/48 92/36/48 81/34/48
f 20/84/49 61/85/49 90/9/49 54/41/49
f 21/86/50 48/87/50 88/88/50 45/59/50
f 21/86/51 40/63/51 92/36/51 48/87/51
f 21/86/52 45/59/52 91/58/52 40/63/52
f 22/89/53 76/90/53 86/46/34 37/68/33
f 23/91/54 48/87/54 92/36/54 35/40/54
f 23/91/55 70/92/55 88/88/55 48/87/55
f 23/91/56 35/40/56 89/39/56 70/92/56
f 24/93/57 63/94/57 85/95/57 58/96/57
f 24/93/58 53/47/58 86/46/58 63/94/58
f 25/97/59 58/96/59 85/95/59 69/98/59
f 26/99/60 63/94/60 86/46/60 76/90/60
f 26/99/61 73/100/61 85/95/61 63/94/61
f 26/99/62 76/90/62 84/101/62 73/100/62
f 27/102/63 66/103/63 87/13/63 57/104/63
f 27/102/64 69/105/64 85/106/64 66/103/64
f 28/107/65 62/108/65 83/109/65 67/110/65
f 28/107/66 73/100/66 84/101/66 62/108/66
f 28/107/67 67/110/67 85/95/67 73/100/67
f 29/111/68 66/112/68 85/95/68 67/110/68
f 29/113/69 77/14/69 87/13/69 66/103/69
f 29/111/70 67/110/70 83/109/70 77/114/70
f 30/115/71 56/73/71 91/74/71 52/116/71
f 30/115/72 57/104/72 87/13/72 56/73/72
f 31/117/73 79/10/73 90/9/73 61/85/73
f 31/117/74 61/85/74 98/3/74 65/118/74
f 32/119/75 59/35/75 92/36/75 46/62/75
f 32/119/76 47/50/76 94/5/76 59/35/76
f 32/119/77 46/62/77 97/23/77 47/50/77
f 33/120/78 78/121/78 94/26/78 41/25/78
f 99/1/79 131/6/79 142/122/79 133/2/79
f 100/7/80 113/123/80 144/124/80 134/8/80
f 100/7/81 132/10/81 143/125/81 113/123/81
f 101/24/82 121/29/82 140/126/82 114/25/82
f 102/42/83 120/47/83 135/127/83 126/43/83
f 103/128/84 122/129/84 136/130/84 119/116/84
f 103/56/85 116/59/85 137/88/86 122/131/87
f 104/132/88 127/118/88 141/3/88 133/2/88
f 104/132/89 123/133/89 143/125/89 127/118/89
f 104/132/90 133/2/90 142/122/90 123/133/90
f 105/75/91 118/134/91 138/39/91 115/38/91
f 105/75/92 134/8/92 144/124/92 118/134/92
f 106/93/93 125/96/93 135/127/93 120/47/93
f 107/135/94 129/136/94 135/137/94 125/138/94
f 107/135/95 128/105/95 136/130/95 129/136/95
f 108/102/96 124/104/96 136/130/96 128/105/96
f 109/115/97 119/116/97 136/130/97 124/104/97
f 110/117/98 127/118/98 143/125/98 132/10/98
f 142/122/99 117/139/100 123/133/99
f 137/88/101 117/139/102 122/131/103
f 135/127/104 129/136/104 130/140/104
f 111/141/105 130/142/105 140/126/105 121/29/105
f 111/143/106 126/43/106 135/127/106 130/140/106
f 111/143/107 121/144/107 139/44/107 126/43/107
f 112/120/108 114/25/108 140/126/108 117/139/108
f 140/126/109 136/130/109 122/129/110 117/139/111
f 112/120/112 117/139/112 142/145/112 131/121/112
f 127/118/113 110/117/114 141/3/115
f 136/130/116 140/126/116 130/142/116 129/136/116
f 114/25/117 112/120/117 131/121/117
f 121/144/118 101/24/118 139/44/118
f 126/43/119 139/44/119 102/42/119
f 107/135/120 125/138/120 108/102/120 128/105/120
f 117/139/121 137/88/122 70/146/123 123/133/123
f 143/125/124 144/124/124 113/123/124
f 143/125/125 123/133/125 144/124/125
f 118/134/126 70/146/126 138/39/126
f 144/124/127 70/146/127 118/134/127
f 70/146/128 144/124/128 123/133/128
f 95/78/129 71/77/129 18/81/129 39/55/129 11/54/129 60/22/129 4/18/129 42/21/13 6/30/12 51/31/129 83/17/129 62/108/129 84/101/129 76/90/129 22/89/129 37/68/130
