# Blender 4.1.1
# www.blender.org
mtllib Pied_av_R.mtl
o Pied_avant_R
v -0.016102 -0.313345 -0.063924
v -0.083747 0.078471 0.107556
v -0.201216 -0.439422 -0.088736
v 0.000064 0.001054 -0.000148
v 0.072490 -1.686551 0.030580
v -0.074568 -1.691952 -0.051376
v 0.237172 -1.688002 0.004773
v -0.115551 -0.322947 0.112838
v -0.149560 -0.069356 0.144954
v -0.226723 -0.422174 0.092436
v -0.212390 -0.835733 -0.077254
v -0.260732 -0.168583 0.124552
v -0.243970 -0.809484 0.051568
v -0.146811 -1.117409 0.095972
v -0.279282 -1.056471 -0.016947
v -0.310108 -0.167805 -0.054325
v -0.093805 -0.314306 -0.134052
v -0.065745 -1.129651 -0.109825
v -0.058562 -1.381709 -0.095089
v -0.030433 -0.882663 -0.041309
v -0.065906 -0.489519 0.011664
v -0.036114 -1.607211 -0.100653
v 0.074576 -1.492619 -0.111755
v 0.167835 -1.483326 -0.090145
v 0.233088 -1.596311 -0.055123
v 0.070010 -1.125429 -0.004964
v 0.260668 -1.590466 0.060275
v 0.145930 -1.491489 0.102228
v 0.020525 -1.139437 0.072011
v 0.014216 -1.585522 0.129894
v -0.083127 -1.503124 0.048388
v -0.144331 -1.603708 -0.017485
v -0.182123 -1.364397 0.027457
v -0.108047 -1.395717 -0.018114
v -0.246519 -1.280311 -0.009269
v 0.037762 -1.658957 0.105050
v 0.021653 -1.414071 -0.093531
v 0.264056 -1.661644 0.061838
v 0.194417 -1.544706 -0.078683
v -0.202380 -0.971577 0.076375
v 0.130574 -1.505658 -0.117713
v -0.110478 -1.584164 -0.063028
v -0.201122 -0.604796 -0.069940
v -0.364975 -0.082889 -0.004063
v -0.219828 -0.068663 0.161604
v -0.023138 0.044093 0.061543
v -0.060958 -1.306330 -0.105968
v -0.139537 -1.379025 0.005328
v -0.113785 -1.555848 0.011528
v -0.005119 -1.689947 -0.026816
v 0.174664 -1.687204 0.011394
v -0.044640 -0.349082 -0.111925
v 0.216521 -1.540902 0.084807
v -0.078600 -0.667346 -0.013151
v 0.003341 -0.144334 -0.036332
v 0.093579 -1.537047 0.135071
v 0.043451 -1.072591 0.038281
v -0.262782 -0.931103 -0.053861
v -0.157254 -1.302956 0.080947
v 0.092094 -1.356757 0.075679
v -0.011782 -1.009524 -0.090655
v -0.259315 -0.312625 -0.074688
v -0.148933 -1.668904 -0.013751
v -0.231054 -0.580726 0.057076
v -0.278703 -0.918049 0.025442
v -0.256819 -0.308768 0.101684
v -0.113834 -0.005919 0.123592
v 0.236477 -1.667488 -0.053560
v 0.259974 -1.569952 0.001942
v -0.117263 -1.392942 -0.074375
v -0.177318 -0.385652 0.121459
v -0.097460 -0.112644 -0.145568
v 0.006497 -0.995273 -0.014921
v -0.146374 -0.400739 -0.121435
v -0.075366 -0.401508 0.067502
v -0.040716 -1.672407 -0.096919
v -0.298626 -0.083515 0.104387
v -0.150533 -1.000887 -0.103896
v -0.072082 -1.067967 0.096375
v 0.147056 -1.340708 -0.049389
v 0.033857 -1.556724 -0.111676
v -0.067257 -1.430706 0.023480
v -0.289352 0.001829 -0.081663
v -0.117854 -0.184734 0.127187
v -0.065532 -1.541712 0.097440
v -0.034844 -0.412303 -0.026207
v 0.190981 -1.643385 0.121878
v -0.105055 -1.644336 -0.058364
v 0.256788 -1.635729 0.003440
v 0.132851 -1.663994 -0.127057
v 0.084894 -1.308474 -0.090363
v -0.057455 -1.458743 -0.059147
v -0.206593 -1.292661 -0.088949
v -0.084937 -0.658650 -0.096732
v -0.006154 -0.032380 -0.116188
v -0.199142 -0.145157 -0.130847
v -0.018050 -0.177433 0.055536
v -0.125352 -0.674217 0.075439
v 0.192809 -1.403757 0.004990
v -0.031265 -1.385027 0.106903
v -0.107294 -1.649780 0.054760
v -0.237550 -1.180790 0.051096
v -0.202582 -0.219333 0.146561
v -0.304726 -0.448910 0.003582
vn 0.9371 -0.0956 -0.3358
vn 0.9769 -0.1329 0.1671
vn 0.9575 -0.1687 -0.2338
vn 0.5720 -0.0199 0.8200
vn -0.3365 -0.1445 -0.9305
vn -0.6516 -0.1419 -0.7452
vn -0.4597 -0.1226 -0.8796
vn 0.4817 0.8550 0.1923
vn -0.1409 0.9899 0.0172
vn 0.9601 -0.0102 0.2795
vn 0.0419 -0.9912 -0.1258
vn 0.0577 -0.9294 0.3646
vn 0.0557 -0.9276 0.3693
vn 0.0540 -0.9261 0.3733
vn -0.1572 -0.9488 0.2741
vn -0.1060 -0.9349 0.3388
vn -0.5516 -0.4557 -0.6986
vn 0.0354 -0.9651 -0.2595
vn 0.0537 -0.9259 0.3740
vn 0.0676 -0.9708 -0.2303
vn 0.9154 -0.3487 -0.2011
vn 0.4520 -0.1069 0.8856
vn 0.6085 -0.0976 0.7876
vn 0.2516 -0.1019 0.9624
vn 0.2413 -0.0749 0.9676
vn 0.5645 0.0039 0.8255
vn -0.4062 -0.1901 0.8938
vn -0.7121 -0.1788 0.6789
vn -0.3538 -0.2038 0.9129
vn -0.5161 0.0554 -0.8547
vn -0.2247 0.0547 -0.9729
vn -0.3975 0.0184 -0.9174
vn -0.7659 -0.1497 0.6253
vn -0.4602 -0.1476 0.8755
vn -0.2311 0.0311 0.9724
vn -0.5909 0.0078 0.8067
vn -0.5603 -0.0107 0.8283
vn -0.4178 -0.0444 0.9075
vn -0.1329 -0.0169 0.9910
vn -0.1142 0.0515 0.9921
vn -0.8513 -0.1053 -0.5140
vn -0.9272 -0.1165 0.3559
vn -0.9809 -0.0346 -0.1912
vn -0.5563 -0.0715 -0.8279
vn -0.7505 -0.1471 -0.6443
vn -0.1283 -0.0611 -0.9899
vn 0.3587 -0.0525 -0.9320
vn 0.1443 -0.1029 -0.9842
vn 0.1571 0.0249 -0.9873
vn -0.1157 -0.0272 -0.9929
vn 0.0969 0.0316 -0.9948
vn -0.1793 -0.2322 -0.9560
vn 0.0657 -0.0645 -0.9957
vn -0.1862 -0.4176 -0.8893
vn 0.9723 0.2122 -0.0985
vn 0.9163 0.2360 0.3236
vn 0.9196 0.2807 -0.2748
vn 0.8935 -0.1403 0.4266
vn 0.9828 -0.1643 0.0838
vn 0.8920 -0.1942 0.4081
vn -0.4977 -0.0612 -0.8652
vn -0.3475 0.2058 -0.9148
vn -0.1615 -0.0218 -0.9866
vn -0.1170 0.1211 -0.9857
vn -0.0923 0.0574 -0.9941
vn -0.3489 0.0888 -0.9329
vn 0.5649 0.2670 -0.7808
vn 0.8564 0.2627 -0.4445
vn 0.5488 0.0640 -0.8335
vn 0.9253 -0.0071 -0.3792
vn 0.5705 0.0275 -0.8208
vn 0.7805 0.3292 -0.5315
vn 0.9081 0.3957 -0.1371
vn 0.7012 0.3475 -0.6225
vn 0.9135 0.4040 -0.0474
vn 0.8606 0.4044 0.3095
vn 0.6179 0.0948 0.7805
vn 0.9977 -0.0000 -0.0681
vn 0.3746 0.2274 0.8989
vn 0.5931 0.4344 0.6779
vn 0.2092 0.3075 0.9283
vn 0.4494 0.1344 0.8831
vn 0.2636 0.0810 0.9612
vn 0.6120 0.2053 0.7637
vn -0.0299 -0.2261 0.9736
vn -0.2314 0.0589 0.9711
vn -0.3897 -0.2865 0.8752
vn -0.8714 0.1637 0.4625
vn -0.9078 0.2226 0.3553
vn -0.9322 0.3539 -0.0765
vn -0.8402 0.1443 0.5228
vn -0.8639 0.4569 -0.2118
vn -0.7443 -0.0495 -0.6660
vn -0.7150 -0.2973 0.6328
vn -0.6208 -0.7190 -0.3126
vn -0.4091 -0.6895 0.5977
vn -0.7354 -0.6673 0.1183
vn -0.5948 -0.6831 0.4237
vn -0.6965 -0.7141 -0.0700
vn -0.4784 0.8740 -0.0850
vt 0.939201 0.356850
vt 0.935819 0.359840
vt 0.937481 0.342055
vt 0.942075 0.347530
vt 0.947995 0.350593
vt 0.941107 0.362877
vt 0.934929 0.377398
vt 0.556267 0.318696
vt 0.551695 0.322779
vt 0.539049 0.321162
vt 0.552874 0.315771
vt 0.707029 0.781907
vt 0.710649 0.779305
vt 0.713902 0.797605
vt 0.706518 0.793507
vt 0.298505 0.698255
vt 0.301150 0.687135
vt 0.304951 0.699748
vt 0.298505 0.707790
vt 0.703711 0.772891
vt 0.708042 0.761247
vt 0.945395 0.340533
vt 0.949790 0.339742
vt 0.344321 0.727114
vt 0.345469 0.721843
vt 0.355450 0.724948
vt 0.348131 0.730463
vt 0.343172 0.737015
vt 0.339718 0.729627
vt 0.338929 0.722499
vt 0.344982 0.718124
vt 0.341336 0.717550
vt 0.710991 0.869893
vt 0.706328 0.868132
vt 0.709106 0.866437
vt 0.713079 0.868510
vt 0.348914 0.718741
vt 0.350160 0.732674
vt 0.348171 0.736961
vt 0.353925 0.731510
vt 0.351880 0.735778
vt 0.532140 0.331085
vt 0.529718 0.336689
vt 0.510784 0.340872
vt 0.526503 0.330623
vt 0.540694 0.327635
vt 0.540524 0.333977
vt 0.548534 0.326674
vt 0.550212 0.331176
vt 0.528794 0.340921
vt 0.536512 0.339930
vt 0.529451 0.346926
vt 0.519238 0.345384
vt 0.704876 0.809558
vt 0.701293 0.816103
vt 0.700589 0.782481
vt 0.708237 0.821226
vt 0.703506 0.841429
vt 0.253930 0.742440
vt 0.256713 0.736661
vt 0.256713 0.762589
vt 0.252917 0.752186
vt 0.545188 0.336510
vt 0.505402 0.352130
vt 0.494228 0.353532
vt 0.499642 0.357255
vt 0.482237 0.361276
vt 0.483745 0.353623
vt 0.472571 0.359121
vt 0.464294 0.352976
vt 0.484987 0.347493
vt 0.289300 0.729024
vt 0.291295 0.720433
vt 0.295453 0.745755
vt 0.289911 0.744833
vt 0.285518 0.738442
vt 0.285892 0.719763
vt 0.285203 0.687135
vt 0.700977 0.762663
vt 0.702845 0.750815
vt 0.298751 0.718507
vt 0.301493 0.725441
vt 0.714398 0.773426
vt 0.714844 0.759304
vt 0.721360 0.754128
vt 0.717650 0.776102
vt 0.713363 0.830502
vt 0.717493 0.822377
vt 0.722810 0.843593
vt 0.713046 0.842861
vt 0.712981 0.848164
vt 0.709145 0.848799
vt 0.718199 0.850721
vt 0.712953 0.853657
vt 0.937146 0.386217
vt 0.933051 0.391485
vt 0.940421 0.377857
vt 0.946315 0.380822
vt 0.938153 0.390182
vt 0.050986 0.753641
vt 0.054350 0.756546
vt 0.054350 0.768517
vt 0.049466 0.758396
vt 0.943172 0.368411
vt 0.947445 0.364672
vt 0.713608 0.863965
vt 0.708945 0.862204
vt 0.718388 0.860663
vt 0.724490 0.868462
vt 0.721331 0.856338
vt 0.724974 0.857434
vt 0.727674 0.856098
vt 0.727031 0.846198
vt 0.730117 0.850936
vt 0.729271 0.860515
vt 0.355450 0.734550
vt 0.353460 0.738837
vt 0.731771 0.864331
vt 0.731740 0.869315
vt 0.733948 0.862769
vt 0.388747 0.746385
vt 0.391188 0.743159
vt 0.391188 0.758895
vt 0.386984 0.755600
vt 0.722938 0.831033
vt 0.719149 0.821687
vt 0.387176 0.740204
vt 0.391148 0.724994
vt 0.066637 0.753641
vt 0.070488 0.753656
vt 0.070488 0.760889
vt 0.065221 0.757579
vt 0.444668 0.339428
vt 0.448701 0.340952
vt 0.442799 0.345147
vt 0.440167 0.341036
vt 0.349696 0.740001
vt 0.453401 0.344217
vt 0.451700 0.348700
vt 0.458149 0.339183
vt 0.463186 0.344320
vt 0.478415 0.343384
vt 0.482156 0.340267
vt 0.450654 0.355120
vt 0.445645 0.355551
vt 0.455463 0.359264
vt 0.449982 0.364880
vt 0.287838 0.762482
vt 0.290362 0.765516
vt 0.287925 0.772273
vt 0.284831 0.765613
vt 0.283697 0.755346
vt 0.289259 0.757580
vt 0.294917 0.759184
vt 0.292346 0.768260
vt 0.292355 0.772694
vt 0.295453 0.767100
vt 0.295428 0.771321
vt 0.288148 0.751608
vt 0.284452 0.747993
vt 0.289889 0.753028
vt 0.469618 0.362469
vt 0.467777 0.360140
vt 0.291672 0.754444
vt 0.295353 0.753836
s 1
usemtl Material.008
f 1/1/1 52/2/1 95/3/1 55/4/1
f 1/1/2 55/4/2 97/5/2 86/6/2
f 1/1/3 86/6/3 94/7/3 52/2/3
f 2/8/4 67/9/4 97/10/4 46/11/4
f 3/12/5 74/13/5 94/14/5 43/15/5
f 3/16/6 43/17/6 104/18/6 62/19/6
f 3/12/7 62/20/7 96/21/7 74/13/7
f 4/22/8 46/23/9 97/5/10 55/4/10
f 5/24/11 50/25/11 90/26/11 51/27/11
f 5/24/12 51/27/13 87/28/14 36/29/12
f 5/24/15 36/29/15 101/30/15 50/25/15
f 6/31/16 50/25/16 101/30/16 63/32/16
f 6/33/17 63/34/17 88/35/17 76/36/17
f 6/31/18 76/37/18 90/26/18 50/25/18
f 7/38/19 38/39/19 87/28/14 51/27/13
f 7/38/20 51/27/20 90/26/20 68/40/20
f 7/38/21 68/40/21 89/41/21 38/39/21
f 8/42/22 71/43/22 98/44/22 75/45/22
f 8/42/23 75/45/23 97/10/23 84/46/23
f 8/42/24 84/46/24 103/47/24 71/43/24
f 9/48/25 45/49/25 103/47/25 84/46/25
f 9/48/26 84/46/26 97/10/26 67/9/26
f 10/50/27 71/43/27 103/47/27 66/51/27
f 10/50/28 66/51/28 104/52/28 64/53/28
f 10/50/29 64/53/29 98/44/29 71/43/29
f 11/54/30 58/55/30 104/56/30 43/15/30
f 11/54/31 43/15/31 94/14/31 78/57/31
f 11/54/32 78/57/32 93/58/32 58/55/32
f 12/59/33 77/60/33 104/61/33 66/62/33
f 12/63/34 66/51/34 103/47/34 45/49/34
f 13/64/35 40/65/35 98/44/35 64/53/35
f 13/64/36 64/53/36 104/52/36 65/66/36
f 13/64/37 65/66/37 102/67/37 40/65/37
f 14/68/38 40/65/38 102/67/38 59/69/38
f 14/68/39 59/69/39 100/70/39 79/71/39
f 14/68/40 79/71/40 98/44/40 40/65/40
f 15/72/41 58/73/41 93/74/41 35/75/41
f 15/72/42 35/75/42 102/76/42 65/77/42
f 15/72/43 65/77/43 104/78/43 58/73/43
f 16/79/44 83/80/44 96/21/44 62/20/44
f 16/81/45 62/19/45 104/18/45 44/82/45
f 17/83/46 74/13/46 96/21/46 72/84/46
f 17/83/47 72/84/47 95/85/47 52/86/47
f 17/83/48 52/86/48 94/14/48 74/13/48
f 18/87/49 61/88/49 91/89/49 47/90/49
f 18/87/50 47/90/50 93/58/50 78/57/50
f 18/87/51 78/57/51 94/14/51 61/88/51
f 19/91/52 70/92/52 93/58/52 47/90/52
f 19/91/53 47/90/53 91/89/53 37/93/53
f 19/91/54 37/93/54 92/94/54 70/92/54
f 20/95/55 61/96/55 94/7/55 54/97/55
f 20/95/56 54/97/56 98/98/56 73/99/56
f 20/100/57 73/101/57 91/102/57 61/103/57
f 21/104/58 75/105/58 98/98/58 54/97/58
f 21/104/59 54/97/59 94/7/59 86/6/59
f 21/104/60 86/6/60 97/5/60 75/105/60
f 22/106/61 76/36/61 88/35/61 42/107/61
f 22/106/62 42/107/62 92/94/62 81/108/62
f 22/106/63 81/108/63 90/109/63 76/36/63
f 23/110/64 37/93/64 91/89/64 41/111/64
f 23/110/65 41/111/65 90/109/65 81/108/65
f 23/110/66 81/108/66 92/94/66 37/93/66
f 24/112/67 41/111/67 91/89/67 80/113/67
f 24/112/68 80/113/68 99/114/68 39/115/68
f 24/112/69 39/115/69 90/109/69 41/111/69
f 25/116/70 69/117/70 89/41/70 68/40/70
f 25/118/71 68/119/71 90/109/71 39/115/71
f 25/118/72 39/115/72 99/114/72 69/120/72
f 26/121/73 57/122/73 99/123/73 80/124/73
f 26/125/74 80/113/74 91/89/74 73/126/74
f 26/121/75 73/127/75 98/128/75 57/122/75
f 27/129/76 69/130/76 99/131/76 53/132/76
f 27/133/77 53/134/77 87/135/77 38/136/77
f 27/137/78 38/39/78 89/41/78 69/117/78
f 28/138/79 56/139/79 87/135/79 53/134/79
f 28/138/80 53/134/80 99/140/80 60/141/80
f 28/138/81 60/141/81 100/70/81 56/139/81
f 29/142/82 57/143/82 98/44/82 79/71/82
f 29/142/83 79/71/83 100/70/83 60/141/83
f 29/142/84 60/141/84 99/140/84 57/143/84
f 30/144/85 36/145/85 87/135/85 56/139/85
f 30/144/86 56/139/86 100/70/86 85/146/86
f 30/144/87 85/146/87 101/147/87 36/145/87
f 31/148/88 49/149/88 101/150/88 85/151/88
f 31/148/89 85/151/89 100/152/89 82/153/89
f 31/148/90 82/153/90 92/154/90 49/149/90
f 32/155/91 63/156/91 101/150/91 49/149/91
f 32/155/92 49/149/92 92/154/92 42/157/92
f 32/155/93 42/157/93 88/158/93 63/156/93
f 33/159/94 59/160/94 102/76/94 35/75/94
f 33/159/95 35/75/95 93/74/95 48/161/95
f 33/162/96 48/163/96 100/70/96 59/69/96
f 34/164/97 70/165/97 92/154/97 82/153/97
f 34/164/98 82/153/98 100/152/98 48/161/98
f 34/164/99 48/161/99 93/74/99 70/165/99
f 72/84/100 96/21/100 83/80/100 16/81/100 44/82/100 104/61/100 77/60/100 12/63/100 45/49/100 9/48/100 67/9/100 2/8/100 46/23/9 4/22/8 55/4/100 95/85/100
