# Blender 4.1.1
# www.blender.org
mtllib Queue.mtl
o Queue
v 0.052326 -0.215841 0.049814
v -0.087306 -0.459327 0.030429
v -0.184822 -0.402328 0.153348
v 0.066223 -0.179571 0.034106
v 0.071942 -0.047733 0.130126
v -0.113010 -0.442434 0.167433
v -0.265311 -0.374691 0.098542
v 0.134697 -0.126122 0.206451
v -0.339675 -0.740125 0.145319
v 0.035411 0.034822 0.024716
v -0.395285 -0.662011 0.185775
v -0.330926 -0.781866 0.031226
v -0.475936 -0.587363 0.102632
v -0.344020 -0.777228 -0.064011
v -0.678946 -0.996823 0.100447
v -0.707921 -0.934948 0.108308
v -0.675773 -1.028363 0.034454
v -0.750518 -0.876428 0.043090
v -0.682986 -1.024766 -0.022981
v -0.842384 -1.023572 0.009100
v -0.841329 -1.025988 0.008878
v -0.842670 -1.022693 0.011456
v -0.839849 -1.028181 0.011216
v 0.052326 -0.215841 -0.049908
v -0.087306 -0.459327 -0.030523
v -0.184822 -0.402328 -0.153442
v 0.066223 -0.179571 -0.034200
v 0.071942 -0.047733 -0.130220
v -0.113010 -0.442434 -0.167527
v -0.265311 -0.374691 -0.098636
v 0.134697 -0.126122 -0.206545
v -0.339675 -0.740125 -0.145412
v 0.035411 0.034822 -0.024810
v 0.066990 -0.175916 -0.000047
v 0.000430 0.000552 -0.000047
v -0.303295 -0.371689 -0.000047
v -0.082751 -0.454766 -0.000047
v 0.037885 -0.246893 -0.000047
v -0.395285 -0.662011 -0.185868
v -0.330926 -0.781866 -0.031320
v -0.475936 -0.587363 -0.102726
v -0.514789 -0.563797 -0.000047
v -0.344020 -0.777228 0.063918
v -0.678946 -0.996823 -0.100540
v -0.707921 -0.934948 -0.108401
v -0.675773 -1.028363 -0.034547
v -0.750518 -0.876428 -0.043183
v -0.770771 -0.860650 -0.000047
v -0.682986 -1.024766 0.022888
v -0.842384 -1.023572 -0.009193
v -0.841329 -1.025988 -0.008971
v -0.842670 -1.022693 -0.011549
v -0.839849 -1.028181 -0.011310
v -0.839117 -1.028714 -0.000047
v -0.842869 -1.022719 -0.000047
vn -0.9264 0.3756 0.0283
vn 0.8787 -0.4772 0.0117
vn 0.8291 -0.5590 0.0125
vn -0.6497 0.6809 0.3379
vn -0.3716 0.2584 0.8917
vn -0.5245 0.4726 0.7082
vn 0.7883 -0.6075 -0.0980
vn 0.1282 -0.0823 0.9883
vn -0.7444 0.6027 0.2875
vn 0.7688 -0.5913 0.2436
vn -0.4135 0.4306 0.8023
vn 0.5762 -0.8084 -0.1203
vn -0.6888 0.5795 0.4356
vn 0.0594 -0.2935 0.9541
vn -0.5283 0.3651 0.7666
vn 0.5418 -0.7654 0.3473
vn -0.0911 -0.8987 0.4289
vn -0.4245 -0.3087 0.8512
vn -0.8358 0.3718 0.4041
vn -0.6848 0.2601 0.6808
vn -0.0236 -0.9985 -0.0492
vn -0.9264 0.3756 -0.0283
vn 0.8787 -0.4772 -0.0117
vn 0.8291 -0.5590 -0.0125
vn -0.6497 0.6809 -0.3379
vn -0.3716 0.2584 -0.8917
vn -0.5245 0.4726 -0.7082
vn 0.7883 -0.6075 0.0980
vn 0.1282 -0.0823 -0.9883
vn -0.7444 0.6027 -0.2875
vn 0.7688 -0.5913 -0.2436
vn -0.4135 0.4306 -0.8023
vn 0.5762 -0.8084 0.1203
vn -0.6888 0.5795 -0.4356
vn 0.0594 -0.2935 -0.9541
vn -0.5283 0.3651 -0.7666
vn 0.5418 -0.7654 -0.3473
vn -0.0911 -0.8987 -0.4289
vn -0.4245 -0.3087 -0.8512
vn -0.8358 0.3718 -0.4041
vn -0.6848 0.2601 -0.6808
vn -0.0236 -0.9985 0.0492
vn 0.9234 0.1990 -0.3282
vn 0.9234 0.1990 0.3282
vn 0.5493 0.0424 -0.8346
vn 0.5493 0.0424 0.8346
vn 0.9357 0.3529 -0.0000
vt 0.503486 0.686398
vt 0.504614 0.684085
vt 0.506896 0.683843
vt 0.506728 0.688346
vt 0.130468 0.714707
vt 0.128439 0.714256
vt 0.128874 0.692927
vt 0.131137 0.693148
vt 0.142544 0.687135
vt 0.139741 0.715098
vt 0.305146 0.749165
vt 0.311574 0.752210
vt 0.311574 0.763604
vt 0.304951 0.760161
vt 0.849529 0.601277
vt 0.845228 0.597605
vt 0.858615 0.573255
vt 0.865357 0.575527
vt 0.871854 0.576069
vt 0.853458 0.605949
vt 0.130278 0.742786
vt 0.124004 0.743186
vt 0.838412 0.621550
vt 0.832405 0.620061
vt 0.312520 0.689128
vt 0.312045 0.710840
vt 0.305664 0.711863
vt 0.310948 0.687303
vt 0.138052 0.741102
vt 0.845390 0.625100
vt 0.130895 0.771926
vt 0.127112 0.772094
vt 0.304951 0.723810
vt 0.311550 0.721349
vt 0.311107 0.738488
vt 0.308367 0.739976
vt 0.829475 0.649109
vt 0.824971 0.648842
vt 0.834443 0.650552
vt 0.135411 0.770487
vt 0.129842 0.779749
vt 0.130003 0.779718
vt 0.827546 0.660399
vt 0.827720 0.660405
vt 0.311206 0.749165
vt 0.310452 0.749158
vt 0.827363 0.660353
vt 0.129238 0.779729
vt 0.510130 0.686398
vt 0.509166 0.684085
vt 0.126411 0.714707
vt 0.126591 0.693148
vt 0.117448 0.715098
vt 0.115057 0.687135
vt 0.318786 0.711195
vt 0.318618 0.723114
vt 0.417286 0.086521
vt 0.432797 0.112499
vt 0.426743 0.114207
vt 0.413098 0.090069
vt 0.420733 0.082253
vt 0.438332 0.112717
vt 0.132519 0.743186
vt 0.126115 0.742786
vt 0.400163 0.067711
vt 0.406549 0.065982
vt 0.314244 0.687135
vt 0.118702 0.741102
vt 0.412781 0.063045
vt 0.130164 0.772094
vt 0.126302 0.771926
vt 0.314109 0.739684
vt 0.392437 0.039222
vt 0.397015 0.038927
vt 0.401393 0.037961
vt 0.122034 0.770487
vt 0.128471 0.779719
vt 0.128624 0.779749
vt 0.394399 0.028311
vt 0.394223 0.028317
vt 0.311951 0.749081
vt 0.318786 0.744024
vt 0.311783 0.748920
vt 0.000000 0.000000
s 1
usemtl Material.009
f 1/1/1 4/2/1 34/3/1 38/4/1
f 2/5/2 37/6/2 34/7/2 4/8/2
f 2/5/3 4/8/3 8/9/3 6/10/3
f 7/11/4 36/12/4 42/13/4 13/14/4
f 3/15/5 6/16/5 8/17/5 5/18/5
f 3/15/6 5/18/6 10/19/6 7/20/6
f 37/6/7 2/5/7 12/21/7 14/22/7
f 6/16/8 3/15/8 11/23/8 9/24/8
f 35/25/9 36/26/9 7/27/9 10/28/9
f 2/5/10 6/10/10 9/29/10 12/21/10
f 3/15/11 7/20/11 13/30/11 11/23/11
f 14/22/12 12/21/12 17/31/12 19/32/12
f 13/33/13 42/34/13 48/35/13 18/36/13
f 9/24/14 11/23/14 16/37/14 15/38/14
f 11/23/15 13/30/15 18/39/15 16/37/15
f 12/21/16 9/29/16 15/40/16 17/31/16
f 17/31/17 15/40/17 20/41/17 22/42/17
f 15/38/18 16/37/18 21/43/18 20/44/18
f 18/36/19 48/35/19 54/45/19 23/46/19
f 16/37/20 18/39/20 23/47/20 21/43/20
f 19/32/21 17/31/21 22/42/21 55/48/21
f 24/49/22 38/4/22 34/3/22 27/50/22
f 25/51/23 27/52/23 34/7/23 37/6/23
f 25/51/24 29/53/24 31/54/24 27/52/24
f 30/55/25 41/56/25 42/34/25 36/26/25
f 26/57/26 28/58/26 31/59/26 29/60/26
f 26/57/27 30/61/27 33/62/27 28/58/27
f 37/6/28 43/63/28 40/64/28 25/51/28
f 29/60/29 32/65/29 39/66/29 26/57/29
f 35/25/30 33/67/30 30/55/30 36/26/30
f 25/51/31 40/64/31 32/68/31 29/53/31
f 26/57/32 39/66/32 41/69/32 30/61/32
f 43/63/33 49/70/33 46/71/33 40/64/33
f 41/56/34 47/72/34 48/35/34 42/34/34
f 32/65/35 44/73/35 45/74/35 39/66/35
f 39/66/36 45/74/36 47/75/36 41/69/36
f 40/64/37 46/71/37 44/76/37 32/68/37
f 46/71/38 52/77/38 50/78/38 44/76/38
f 44/73/39 50/79/39 51/80/39 45/74/39
f 47/72/40 53/81/40 54/45/40 48/35/40
f 45/82/41 51/83/41 53/81/41 47/72/41
f 49/70/42 55/48/42 52/77/42 46/71/42
f 4/8/43 10/19/43 5/18/43 8/17/43
f 27/52/44 31/59/44 28/58/44 33/62/44
f 10/19/45 4/8/45 35/25/45
f 33/62/46 35/25/46 27/52/46
s 0
f 27/84/47 35/84/47 4/84/47 34/84/47
